<?xml version="1.0" encoding="UTF-8" standalone="no"?>
<!DOCTYPE svg PUBLIC "-//W3C//DTD SVG 1.1//EN"
 "http://www.w3.org/Graphics/SVG/1.1/DTD/svg11.dtd">
<!-- Generated by graphviz version 2.26.3 (20100126.1600)
 -->
<!-- Title: G Pages: 1 -->
<svg width="298pt" height="244pt"
 viewBox="0.00 0.00 298.00 244.00" xmlns="http://www.w3.org/2000/svg" xmlns:xlink="http://www.w3.org/1999/xlink">
<g id="graph1" class="graph" transform="scale(1 1) rotate(0) translate(4 240)">
<title>G</title>
<polygon fill="white" stroke="white" points="-4,5 -4,-240 295,-240 295,5 -4,5"/>
<g id="graph2" class="cluster"><title>cluster_Global</title>
<polyline fill="none" stroke="gray" points="20,-8 270,-8 "/>
<path fill="none" stroke="gray" d="M270,-8C276,-8 282,-14 282,-20"/>
<polyline fill="none" stroke="gray" points="282,-20 282,-216 "/>
<path fill="none" stroke="gray" d="M282,-216C282,-222 276,-228 270,-228"/>
<polyline fill="none" stroke="gray" points="270,-228 20,-228 "/>
<path fill="none" stroke="gray" d="M20,-228C14,-228 8,-222 8,-216"/>
<polyline fill="none" stroke="gray" points="8,-216 8,-20 "/>
<path fill="none" stroke="gray" d="M8,-20C8,-14 14,-8 20,-8"/>
<text text-anchor="middle" x="145" y="-214.1" font-family="Times Roman,serif" font-size="11.00" fill="gray">\</text>
</g>
<g id="graph3" class="cluster"><title>cluster_\SSMQ</title>
<polyline fill="none" stroke="gray" points="28,-16 262,-16 "/>
<path fill="none" stroke="gray" d="M262,-16C268,-16 274,-22 274,-28"/>
<polyline fill="none" stroke="gray" points="274,-28 274,-186 "/>
<path fill="none" stroke="gray" d="M274,-186C274,-192 268,-198 262,-198"/>
<polyline fill="none" stroke="gray" points="262,-198 28,-198 "/>
<path fill="none" stroke="gray" d="M28,-198C22,-198 16,-192 16,-186"/>
<polyline fill="none" stroke="gray" points="16,-186 16,-28 "/>
<path fill="none" stroke="gray" d="M16,-28C16,-22 22,-16 28,-16"/>
<text text-anchor="middle" x="145" y="-184.1" font-family="Times Roman,serif" font-size="11.00" fill="gray">SSMQ</text>
</g>
<!-- \\SSMQ\\Message -->
<g id="node3" class="node"><title>\\SSMQ\\Message</title>
<polygon fill="none" stroke="black" points="256,-168 192,-168 192,-132 256,-132 256,-168"/>
<text text-anchor="middle" x="224" y="-147.1" font-family="Courier,monospace" font-size="11.00">Message</text>
</g>
<!-- \\SSMQ\\Base -->
<g id="node4" class="node"><title>\\SSMQ\\Base</title>
<polygon fill="none" stroke="black" points="109,-114 25,-114 25,-78 109,-78 109,-114"/>
<text text-anchor="start" x="33" y="-101.433" font-family="Courier,monospace" font-size="11.00">«abstract»</text>
<text text-anchor="start" x="53" y="-88.2333" font-family="Courier,monospace" font-size="11.00">Base</text>
</g>
<!-- \\SSMQ\\MySqlQueue -->
<g id="node5" class="node"><title>\\SSMQ\\MySqlQueue</title>
<polygon fill="none" stroke="black" points="266,-114 182,-114 182,-78 266,-78 266,-114"/>
<text text-anchor="middle" x="224" y="-93.1" font-family="Courier,monospace" font-size="11.00">MySqlQueue</text>
</g>
<!-- \\SSMQ\\MySqlQueue&#45;&gt;\\SSMQ\\Base -->
<g id="edge4" class="edge"><title>\\SSMQ\\MySqlQueue&#45;&gt;\\SSMQ\\Base</title>
<path fill="none" stroke="black" d="M181.927,-96C162.812,-96 139.995,-96 119.747,-96"/>
<polygon fill="none" stroke="black" points="119.736,-92.5001 109.736,-96 119.736,-99.5001 119.736,-92.5001"/>
</g>
<!-- \\SSMQ\\SSMQ -->
<g id="node6" class="node"><title>\\SSMQ\\SSMQ</title>
<polygon fill="none" stroke="black" points="251,-60 197,-60 197,-24 251,-24 251,-60"/>
<text text-anchor="middle" x="224" y="-39.1" font-family="Courier,monospace" font-size="11.00">SSMQ</text>
</g>
</g>
</svg>
